<svg xmlns="http://www.w3.org/2000/svg" xmlns:xlink="http://www.w3.org/1999/xlink" version="1.1" width="256" height="256" viewBox="0 0 256 256" xml:space="preserve">

<defs>
</defs>
<g style="stroke: none; stroke-width: 0; stroke-dasharray: none; stroke-linecap: butt; stroke-linejoin: miter; stroke-miterlimit: 10; fill: none; fill-rule: nonzero; opacity: 1;" transform="translate(1.4065934065934016 1.4065934065934016) scale(2.81 2.81)" >
	<circle cx="45" cy="45" r="45" style="stroke: none; stroke-width: 1; stroke-dasharray: none; stroke-linecap: butt; stroke-linejoin: miter; stroke-miterlimit: 10; fill: rgb(32,196,203); fill-rule: nonzero; opacity: 1;" transform="  matrix(1 0 0 1 0 0) "/>
	<path d="M 46.865 48.003 c 0.002 0.056 0.017 0.108 0.017 0.164 c 0 2.771 -2.247 5.018 -5.018 5.018 s -5.018 -2.247 -5.018 -5.018 c 0 -0.056 0.015 -0.109 0.017 -0.164 H 13.5 v 20.523 c 0 1.165 0.953 2.118 2.118 2.118 h 52.491 c 1.165 0 2.118 -0.953 2.118 -2.118 V 48.003 H 46.865 z" style="stroke: none; stroke-width: 1; stroke-dasharray: none; stroke-linecap: butt; stroke-linejoin: miter; stroke-miterlimit: 10; fill: rgb(27,167,173); fill-rule: nonzero; opacity: 1;" transform=" matrix(1 0 0 1 0 0) " stroke-linecap="round" />
	<path d="M 70.227 44.086 V 31.737 c 0 -1.165 -0.953 -2.118 -2.118 -2.118 H 15.618 c -1.165 0 -2.118 0.953 -2.118 2.118 v 12.348 H 70.227 z" style="stroke: none; stroke-width: 1; stroke-dasharray: none; stroke-linecap: butt; stroke-linejoin: miter; stroke-miterlimit: 10; fill: rgb(27,167,173); fill-rule: nonzero; opacity: 1;" transform=" matrix(1 0 0 1 0 0) " stroke-linecap="round" />
	<path d="M 51.987 42.854 h -4 V 27.75 c 0 -2.853 -2.321 -5.174 -5.174 -5.174 h -1.899 c -2.853 0 -5.174 2.321 -5.174 5.174 v 15.103 h -4 V 27.75 c 0 -5.059 4.116 -9.174 9.174 -9.174 h 1.899 c 5.059 0 9.174 4.115 9.174 9.174 V 42.854 z" style="stroke: none; stroke-width: 1; stroke-dasharray: none; stroke-linecap: butt; stroke-linejoin: miter; stroke-miterlimit: 10; fill: rgb(27,167,173); fill-rule: nonzero; opacity: 1;" transform=" matrix(1 0 0 1 0 0) " stroke-linecap="round" />
	<path d="M 50.138 44.73 c 0.002 0.056 0.017 0.108 0.017 0.164 c 0 2.771 -2.247 5.018 -5.018 5.018 s -5.018 -2.247 -5.018 -5.018 c 0 -0.056 0.015 -0.109 0.017 -0.164 H 16.773 v 20.523 c 0 1.165 0.953 2.118 2.118 2.118 h 52.491 c 1.165 0 2.118 -0.953 2.118 -2.118 V 44.73 H 50.138 z" style="stroke: none; stroke-width: 1; stroke-dasharray: none; stroke-linecap: butt; stroke-linejoin: miter; stroke-miterlimit: 10; fill: rgb(255,255,255); fill-rule: nonzero; opacity: 1;" transform=" matrix(1 0 0 1 0 0) " stroke-linecap="round" />
	<path d="M 73.5 40.813 V 28.465 c 0 -1.165 -0.953 -2.118 -2.118 -2.118 H 18.891 c -1.165 0 -2.118 0.953 -2.118 2.118 v 12.348 H 73.5 z" style="stroke: none; stroke-width: 1; stroke-dasharray: none; stroke-linecap: butt; stroke-linejoin: miter; stroke-miterlimit: 10; fill: rgb(255,255,255); fill-rule: nonzero; opacity: 1;" transform=" matrix(1 0 0 1 0 0) " stroke-linecap="round" />
	<path d="M 55.26 39.581 h -4 V 24.478 c 0 -2.853 -2.321 -5.174 -5.174 -5.174 h -1.899 c -2.853 0 -5.174 2.321 -5.174 5.174 v 15.103 h -4 V 24.478 c 0 -5.059 4.115 -9.174 9.174 -9.174 h 1.899 c 5.059 0 9.174 4.116 9.174 9.174 V 39.581 z" style="stroke: none; stroke-width: 1; stroke-dasharray: none; stroke-linecap: butt; stroke-linejoin: miter; stroke-miterlimit: 10; fill: rgb(255,255,255); fill-rule: nonzero; opacity: 1;" transform=" matrix(1 0 0 1 0 0) " stroke-linecap="round" />
</g>
</svg>